<svg width="89" height="29" viewBox="0 0 89 29" fill="none" xmlns="http://www.w3.org/2000/svg">
<path fill-rule="evenodd" clip-rule="evenodd" d="M11.613 26.7748C11.613 27.1903 12.099 27.4094 12.4156 27.1405C14.4176 25.4393 15.7234 22.6478 15.7234 19.4914V0C14.0664 0 11.613 2.91169 11.613 6.40682V26.7748Z" fill="#D61B37"/>
<path fill-rule="evenodd" clip-rule="evenodd" d="M5.66772 11.5071V27.8891C5.66772 28.2659 5.92696 28.5887 6.29126 28.6806C6.84705 28.821 7.42428 28.8887 8.01533 28.8756C8.49715 28.8638 8.96861 28.8002 9.42624 28.6896C9.79331 28.6005 10.056 28.2755 10.056 27.8967V5.05255C8.24483 5.05255 5.66772 8.47164 5.66772 11.5071Z" fill="#F35C29"/>
<path fill-rule="evenodd" clip-rule="evenodd" d="M4.11038 12.2508C4.11038 11.8388 3.63132 11.6183 3.31332 11.8803C1.31067 13.5283 0 16.2699 0 19.3752C0 22.5136 1.30445 25.3437 3.30365 27.0809C3.61887 27.3554 4.11038 27.1362 4.11038 26.7187V12.2508Z" fill="#F8992E"/>
<path fill-rule="evenodd" clip-rule="evenodd" d="M30.7904 17.4944C30.7904 19.8081 29.403 20.9024 27.6223 20.9024C26.5045 20.9024 25.6258 20.5346 24.8184 19.8676C24.1976 19.3539 23.3045 19.347 22.7183 19.9001L21.6316 20.9273C22.8731 22.4944 24.7617 23.7388 27.6755 23.7388C29.5655 23.7388 31.1575 23.2161 32.2635 22.1958C33.3696 21.1762 34.0173 19.6339 34.0173 17.569V5.58563H30.7904V17.4944Z" fill="white"/>
<path fill-rule="evenodd" clip-rule="evenodd" d="M62.9304 6.36059C62.2239 7.05671 61.8444 8.15171 61.8444 9.6193V10.4295H57.1063V9.86817C57.1063 8.50011 57.7133 7.87796 58.8747 7.87796C59.5321 7.87796 60.6692 7.85307 60.6692 7.85307V5.31537H58.1924C56.8789 5.31537 55.8938 5.66378 55.1867 6.36059C54.4795 7.05671 54.1006 8.15171 54.1006 9.6193V10.4295H52.7043C51.8948 10.4295 51.238 11.0855 51.238 11.895V12.9423H54.1006V23.4899H57.1568V12.9423H60.643H61.8444V23.4899H64.902V12.9423H66.7283C67.6443 12.9423 68.3874 12.1992 68.3874 11.2832V10.4544H64.8501V9.86817C64.8501 8.50011 65.4571 7.87796 66.6191 7.87796C67.2758 7.87796 68.413 7.85307 68.413 7.85307V5.31537H65.9112C64.6234 5.31537 63.6376 5.66378 62.9304 6.36059Z" fill="white"/>
<path fill-rule="evenodd" clip-rule="evenodd" d="M70.8121 23.4897H72.3986C73.2247 23.4897 73.8946 22.8856 73.8946 22.1397V5.31519H70.8121V23.4897Z" fill="white"/>
<path fill-rule="evenodd" clip-rule="evenodd" d="M79.122 16.0018C79.3999 13.9618 80.714 12.544 82.5825 12.544C84.6039 12.544 85.7659 14.0613 85.9678 16.0018H79.122ZM88.9997 17.1465C88.9997 13.3652 86.8526 10.0809 82.6081 10.0809C78.7929 10.0809 76.0907 13.1661 76.0907 16.9226C76.0907 21.0274 79.0715 23.7884 82.9372 23.7884C85.3871 23.7884 87.1298 22.8178 88.3928 21.3254L87.9884 20.9721C87.2487 20.3258 86.1655 20.2677 85.2993 20.7502C84.6211 21.1283 83.8815 21.3254 82.9869 21.3254C81.0168 21.3254 79.4759 20.1315 79.1469 17.992H88.9486C88.9742 17.8427 88.9997 17.3449 88.9997 17.1465Z" fill="white"/>
<path fill-rule="evenodd" clip-rule="evenodd" d="M42.8582 21.3384C40.8327 21.3384 39.1909 19.3723 39.1909 16.9473C39.1909 14.5223 40.8327 12.557 42.8582 12.557C44.8836 12.557 46.5254 14.5223 46.5254 16.9473C46.5254 19.3723 44.8836 21.3384 42.8582 21.3384ZM46.3533 11.1737C45.3302 10.4907 44.1135 10.0939 42.807 10.0939C39.1653 10.0939 36.2142 13.1625 36.2142 16.9473C36.2142 20.7328 39.1653 23.8014 42.807 23.8014C44.1322 23.8014 45.3648 23.3929 46.3968 22.6919C46.551 23.3071 47.1054 23.7634 47.7684 23.7634H49.377V10.132H46.3533V11.1737Z" fill="white"/>
</svg>
