<svg width="17" height="15" viewBox="0 0 17 15" fill="none" xmlns="http://www.w3.org/2000/svg">
<path fill-rule="evenodd" clip-rule="evenodd" d="M14.0635 1.84392C13.2955 1.23812 12.3295 0.940824 11.3535 1.01042C10.3785 1.08002 9.46454 1.51132 8.79054 2.21992L8.23454 2.78152L7.67754 2.21992C7.00354 1.51112 6.08954 1.07952 5.11354 1.00992C4.13854 0.940424 3.17154 1.23782 2.40454 1.84392C1.98954 2.19112 1.65054 2.62062 1.40954 3.10522C1.16854 3.58992 1.03054 4.11912 1.00454 4.65972C0.978536 5.20032 1.06454 5.74052 1.25654 6.24622C1.44954 6.75192 1.74554 7.21222 2.12454 7.59812L7.59254 13.1286C7.67654 13.2136 7.77654 13.281 7.88654 13.3271C7.99554 13.3731 8.11354 13.3969 8.23354 13.3969C8.35254 13.3969 8.47054 13.3731 8.58054 13.3271C8.69054 13.281 8.78954 13.2136 8.87354 13.1286L14.3415 7.59812C14.7215 7.21252 15.0175 6.75232 15.2105 6.24662C15.4035 5.74092 15.4905 5.20062 15.4635 4.65992C15.4375 4.11922 15.2995 3.58982 15.0585 3.10512C14.8175 2.62042 14.4785 2.19092 14.0635 1.84392V1.84392Z" stroke="#0D0B22" stroke-width="2"/>
</svg>
