<svg width="13" height="16" viewBox="0 0 13 16" fill="none" xmlns="http://www.w3.org/2000/svg">
<path d="M6.52 10.5876C3.478 10.5876 1 12.4838 1 14.8152C1.014 14.8682 1.045 14.915 1.089 14.9484C1.132 14.9818 1.185 14.9999 1.24 14.9999C1.295 14.9999 1.348 14.9818 1.392 14.9484C1.435 14.915 1.466 14.8682 1.48 14.8152C1.48 12.6873 3.742 10.9558 6.52 10.9558C9.3 10.9558 11.57 12.6873 11.57 14.8152C11.58 14.8682 11.61 14.915 11.65 14.9484C11.7 14.9818 11.75 14.9999 11.81 14.9999C11.86 14.9999 11.91 14.9818 11.96 14.9484C12 14.915 12.03 14.8682 12.05 14.8152C12.04 12.4838 9.57 10.5876 6.52 10.5876Z" fill="#0D0B22" stroke="#0D0B22" stroke-width="1.5"/>
<path fill-rule="evenodd" clip-rule="evenodd" d="M4.61803 1.5872C5.19003 1.2044 5.86003 1 6.55003 1C7.48003 1.001 8.36003 1.3685 9.02003 2.0217C9.67003 2.675 10.04 3.5607 10.04 4.4845C10.04 5.1737 9.83003 5.8474 9.45003 6.4204C9.07003 6.9934 8.52003 7.44 7.89003 7.7037C7.25003 7.9675 6.55003 8.0365 5.87003 7.902C5.20003 7.7676 4.57703 7.4357 4.09003 6.9484C3.60303 6.4611 3.27103 5.8402 3.13603 5.1643C3.00203 4.4884 3.07103 3.7877 3.33503 3.151C3.59803 2.5143 4.04503 1.9701 4.61803 1.5872ZM4.97003 6.8554C5.44003 7.1687 5.99003 7.336 6.55003 7.336C7.31003 7.3352 8.03003 7.0345 8.57003 6.4999C9.10003 5.9653 9.40003 5.2405 9.41003 4.4845C9.41003 3.9205 9.24003 3.3692 8.92003 2.9003C8.61003 2.4314 8.17003 2.0659 7.65003 1.8501C7.12003 1.6342 6.55003 1.5778 6.00003 1.6878C5.44003 1.7978 4.93603 2.0694 4.53803 2.4682C4.13903 2.867 3.86703 3.3751 3.75703 3.9282C3.64703 4.4813 3.70403 5.0547 3.92003 5.5757C4.13503 6.0967 4.50103 6.5421 4.97003 6.8554Z" fill="#0D0B22"/>
<path d="M6.55003 1L6.55083 0.25H6.55003V1ZM4.61803 1.5872L5.03473 2.21079L5.03516 2.2105L4.61803 1.5872ZM9.02003 2.0217L9.55171 1.4927L9.5476 1.48863L9.02003 2.0217ZM7.89003 7.7037L8.17585 8.39712L8.17961 8.39554L7.89003 7.7037ZM5.87003 7.902L5.72252 8.63735L5.7245 8.63775L5.87003 7.902ZM3.13603 5.1643L2.40035 5.31015L2.40055 5.3112L3.13603 5.1643ZM3.33503 3.151L4.02783 3.43826L4.02822 3.43733L3.33503 3.151ZM6.55003 7.336V8.086L6.55082 8.086L6.55003 7.336ZM4.97003 6.8554L4.55342 7.47905L4.55403 7.47946L4.97003 6.8554ZM8.57003 6.4999L9.09771 7.03291L9.10264 7.02793L8.57003 6.4999ZM9.41003 4.4845L10.16 4.49442V4.4845H9.41003ZM8.92003 2.9003L8.29433 3.31397L8.30054 3.32307L8.92003 2.9003ZM7.65003 1.8501L7.93751 1.15737L7.93297 1.15552L7.65003 1.8501ZM6.00003 1.6878L6.14459 2.42374L6.14711 2.42324L6.00003 1.6878ZM4.53803 2.4682L5.06822 2.99866L5.06889 2.998L4.53803 2.4682ZM3.75703 3.9282L3.02143 3.78191H3.02143L3.75703 3.9282ZM3.92003 5.5757L4.61332 5.2896L4.61285 5.28847L3.92003 5.5757ZM6.55003 0.25C5.71104 0.25 4.89594 0.498755 4.2009 0.963901L5.03516 2.2105C5.48411 1.91005 6.00901 1.75 6.55003 1.75V0.25ZM9.5476 1.48863C8.74927 0.698524 7.68077 0.251215 6.55083 0.25L6.54922 1.75C7.27929 1.75078 7.97078 2.03848 8.49245 2.55477L9.5476 1.48863ZM10.79 4.4845C10.79 3.36025 10.34 2.28499 9.5517 1.49271L8.48836 2.55069C9.00008 3.06501 9.29003 3.76115 9.29003 4.4845H10.79ZM10.0751 6.83491C10.5338 6.14313 10.79 5.32599 10.79 4.4845H9.29003C9.29003 5.02141 9.12621 5.55167 8.82498 6.00589L10.0751 6.83491ZM8.17961 8.39554C8.94243 8.07625 9.61078 7.53501 10.0751 6.83491L8.82498 6.00589C8.52927 6.45179 8.09763 6.80375 7.60044 7.01186L8.17961 8.39554ZM5.7245 8.63775C6.54943 8.80091 7.39947 8.71712 8.17584 8.39711L7.60421 7.01029C7.10059 7.21788 6.55063 7.27209 6.01555 7.16625L5.7245 8.63775ZM3.55953 7.47857C4.15161 8.07101 4.90804 8.47397 5.72252 8.63735L6.01754 7.16665C5.49201 7.06123 5.00244 6.80039 4.62052 6.41823L3.55953 7.47857ZM2.40055 5.3112C2.56454 6.13221 2.96782 6.88649 3.55953 7.47857L4.62052 6.41823C4.23824 6.03572 3.97752 5.54819 3.8715 5.0174L2.40055 5.3112ZM2.64222 2.86374C2.32134 3.63763 2.23756 4.48907 2.40035 5.31015L3.87171 5.01845C3.76649 4.48773 3.82072 3.93777 4.02783 3.43826L2.64222 2.86374ZM4.20132 0.963615C3.50524 1.42877 2.96176 2.09015 2.64184 2.86467L4.02822 3.43733C4.23429 2.93845 4.58482 2.51143 5.03473 2.21079L4.20132 0.963615ZM6.55003 6.586C6.13945 6.586 5.73397 6.46328 5.38602 6.23134L4.55403 7.47946C5.14609 7.87412 5.84061 8.086 6.55003 8.086V6.586ZM8.04237 5.96691C7.64063 6.36463 7.10914 6.58541 6.54924 6.586L6.55082 8.086C7.51091 8.08499 8.41943 7.70437 9.09769 7.03289L8.04237 5.96691ZM8.66009 4.47458C8.65262 5.03939 8.42838 5.57751 8.03741 5.97187L9.10264 7.02793C9.77168 6.35309 10.1474 5.44161 10.16 4.49442L8.66009 4.47458ZM8.30054 3.32307C8.5357 3.66766 8.66003 4.07168 8.66003 4.4845H10.16C10.16 3.76932 9.94435 3.07074 9.53952 2.47753L8.30054 3.32307ZM7.36255 2.54282C7.74309 2.70074 8.06592 2.96834 8.29439 3.31392L9.54566 2.48668C9.15414 1.89446 8.59697 1.43106 7.9375 1.15738L7.36255 2.54282ZM6.14711 2.42324C6.54933 2.34279 6.96994 2.3829 7.36708 2.54468L7.93297 1.15552C7.27012 0.8855 6.55073 0.812807 5.85294 0.952364L6.14711 2.42324ZM5.06889 2.998C5.36234 2.70395 5.73217 2.50475 6.14459 2.42374L5.85547 0.951863C5.14789 1.09085 4.50971 1.43485 4.00717 1.9384L5.06889 2.998ZM4.49262 4.07449C4.57361 3.66726 4.77397 3.29277 5.06822 2.99866L4.00783 1.93774C3.50408 2.44123 3.16044 3.08294 3.02143 3.78191L4.49262 4.07449ZM4.61285 5.28847C4.45353 4.90419 4.41165 4.48164 4.49262 4.07449L3.02143 3.78191C2.88241 4.48096 2.95453 5.20521 3.22721 5.86293L4.61285 5.28847ZM5.38664 6.23175C5.04069 6.00065 4.77132 5.67248 4.61332 5.2896L3.22674 5.8618C3.49874 6.52092 3.96137 7.08355 4.55342 7.47905L5.38664 6.23175Z" fill="#0D0B22"/>
</svg>
