<svg width="13" height="18" viewBox="0 0 13 18" fill="none" xmlns="http://www.w3.org/2000/svg">
<path d="M1.60868 9.49135L1.60881 9.49156L5.97473 16.4997C5.97473 16.4997 5.97473 16.4997 5.97474 16.4997C6.1042 16.7075 6.33192 16.8333 6.57636 16.8333H6.57637H6.57637H6.57638H6.57639H6.57639H6.5764H6.57641H6.57642H6.57642H6.57643H6.57644H6.57644H6.57645H6.57646H6.57647H6.57647H6.57648H6.57649H6.57649H6.5765H6.57651H6.57652H6.57652H6.57653H6.57654H6.57654H6.57655H6.57656H6.57657H6.57657H6.57658H6.57659H6.57659H6.5766H6.57661H6.57662H6.57662H6.57663H6.57664H6.57664H6.57665H6.57666H6.57667H6.57668H6.57669H6.57669H6.5767H6.57671H6.57672H6.57672H6.57673H6.57674H6.57674H6.57675H6.57676H6.57677H6.57677H6.57678H6.57679H6.57679H6.5768H6.57682H6.57682H6.57683H6.57684H6.57684H6.57685H6.57686H6.57687H6.57687H6.57688H6.57689H6.57689H6.5769H6.57691H6.57692H6.57693H6.57694H6.57694H6.57695H6.57696H6.57696H6.57697H6.57698H6.57699H6.57699H6.57701H6.57701H6.57702H6.57703H6.57704H6.57704H6.57705H6.57706H6.57706H6.57708H6.57709H6.57709H6.5771H6.57711H6.57711H6.57712H6.57713H6.57714H6.57715H6.57716H6.57716H6.57717H6.57718H6.57719H6.57719H6.5772H6.57721H6.57722H6.57723H6.57723H6.57724H6.57725H6.57726H6.57726H6.57728H6.57728H6.57729H6.5773H6.57731H6.57731H6.57732H6.57733H6.57734H6.57735H6.57736H6.57736H6.57737H6.57738H6.57739H6.5774H6.5774H6.57741H6.57742H6.57743H6.57744H6.57745H6.57745H6.57746H6.57747H6.57748H6.57749H6.5775H6.5775H6.57751H6.57752H6.57753H6.57754H6.57755H6.57755H6.57756H6.57757H6.57758H6.57759H6.5776H6.5776H6.57761H6.57762H6.57762H6.57764H6.57765H6.57765H6.57766H6.57767H6.57767H6.57769H6.5777H6.5777H6.57771H6.57772H6.57773H6.57774H6.57774H6.57775H6.57776H6.57777H6.57778H6.57779H6.57779H6.5778H6.57781H6.57782H6.57783H6.57784H6.57784H6.57785H6.57787H6.57787H6.57788H6.57789H6.57789H6.57791H6.57791H6.57792H6.57793H6.57794H6.57795H6.57796H6.57796H6.57797H6.57798H6.57799H6.578H6.57801H6.57801H6.57802H6.57803H6.57804H6.57805H6.57806H6.57806H6.57807H6.57808H6.57809H6.5781H6.57811H6.57811H6.57813H6.57813H6.57814H6.57815H6.57816H6.57817H6.57818H6.57818H6.57819H6.5782H6.57821H6.57822H6.57823H6.57823H6.57825H6.57825H6.57826H6.57827H6.57828H6.57829H6.5783H6.5783H6.57831H6.57832H6.57833H6.57834H6.57835H6.57835H6.57836H6.57837H6.57838H6.57839H6.5784H6.5784H6.57841H6.57842H6.57843H6.57844H6.57845H6.57845H6.57847H6.57847H6.57848H6.57849H6.5785H6.57851H6.57852H6.57852H6.57853H6.57854H6.57855H6.57856H6.57857H6.57857H6.57858H6.57859H6.5786H6.57861H6.57862H6.57862H6.57863H6.57864H6.57865H6.57866H6.57866H6.57867H6.57869H6.57869H6.5787H6.57871H6.57871H6.57872H6.57874H6.57874H6.57875H6.57876H6.57876H6.57877H6.57878H6.57879H6.5788H6.57881H6.57881H6.57882H6.57883H6.57884H6.57885H6.57886H6.57886H6.57887H6.57888H6.57889H6.5789H6.57891H6.57891H6.57892H6.57893H6.57894H6.57895H6.57896H6.57896H6.57897H6.57898H6.57899H6.579H6.579H6.57901H6.57902H6.57903H6.57904H6.57905H6.57905H6.57906H6.57907H6.57908H6.57908H6.5791H6.5791H6.57911H6.57912H6.57913H6.57913H6.57914H6.57915H6.57916H6.57917H6.57917H6.57918H6.57919H6.5792H6.5792H6.57921H6.57922H6.57923H6.57924H6.57925H6.57925H6.57926H6.57927H6.57927H6.57928H6.5793H6.5793H6.57931H6.57932H6.57932H6.57933H6.57934H6.57935H6.57935H6.57937H6.57937H6.57938H6.57939H6.5794H6.5794H6.57941H6.57942H6.57942H6.57943H6.57944H6.57945H6.57946H6.57947H6.57947H6.57948H6.57949H6.57949H6.5795H6.57951H6.57952H6.57952H6.57953H6.57954H6.57955H6.57956H6.57957H6.57957H6.57958H6.57959H6.57959H6.5796H6.57961H6.57962H6.57962H6.57963H6.57964H6.57964H6.57965H6.57966H6.57967H6.57967H6.57968H6.57969H6.5797H6.57971H6.57972H6.57972H6.57973H6.57974H6.57974H6.57975H6.57976H6.57977H6.57977H6.57978H6.57979H6.57979H6.5798H6.57981H6.57982H6.57982H6.57983H6.57984H6.57984H6.57985H6.57986H6.57987H6.57987H6.57988H6.57989H6.57989H6.5799H6.57991H6.57992H6.57992H6.57993H6.57994H6.57994H6.57995H6.57996H6.57997H6.57997H6.57998H6.57999L6.57999 16.8333L6.58195 16.8333C6.82849 16.8314 7.05673 16.7017 7.18385 16.4902L11.4385 9.41417L11.4386 9.41397C11.9695 8.52906 12.25 7.514 12.25 6.47852C12.25 3.31867 9.66985 0.75 6.5 0.75C3.33015 0.75 0.75 3.31867 0.75 6.47852C0.75 7.54565 1.0468 8.58745 1.60868 9.49135ZM10.2232 8.68795L6.56564 14.7709L2.81242 8.7463C2.38941 8.06581 2.16056 7.28157 2.16056 6.47852C2.16056 4.10013 4.1099 2.157 6.5 2.157C8.88989 2.157 10.8364 4.09991 10.8364 6.47852C10.8364 7.25824 10.6225 8.02238 10.2233 8.68782C10.2232 8.68786 10.2232 8.6879 10.2232 8.68795Z" fill="#0D0B22" stroke="#0D0B22" stroke-width="0.5"/>
<path d="M6.651 5C5.74064 5 5 5.74064 5 6.651C5 7.55555 5.72859 8.302 6.651 8.302C7.58479 8.302 8.302 7.5456 8.302 6.651C8.302 5.74064 7.56136 5 6.651 5ZM6.651 7.75534C6.04092 7.75534 6.17188 7.25943 6.17188 6.651C6.17188 6.04409 6.04409 5.54666 6.651 5.54666C7.25791 5.54666 6.32812 6.04409 6.32812 6.651C6.32812 7.25055 7.27075 7.75534 6.651 7.75534Z" fill="#0D0B22" stroke="#0D0B22" stroke-width="0.6"/>
</svg>
